<svg width="20" height="17" viewBox="0 0 20 17" fill="none" xmlns="http://www.w3.org/2000/svg">
<path fill-rule="evenodd" clip-rule="evenodd" d="M17.5344 0.960299L17.1064 0.344299L15.8744 1.2003L16.3024 1.8153C18.9194 5.5843 18.9194 10.4493 16.3024 14.2103L15.8744 14.8253L17.1054 15.6823L17.5344 15.0663C20.4664 10.8523 20.4664 5.1833 17.5344 0.960299Z" fill="white"/>
<path fill-rule="evenodd" clip-rule="evenodd" d="M14.8479 3.6356L14.4749 2.9846L13.1739 3.7296L13.5459 4.3806C14.8309 6.6256 14.8309 9.4096 13.5469 11.6466L13.1729 12.2966L14.4739 13.0436L14.8479 12.3936C16.3959 9.6966 16.3959 6.3406 14.8479 3.6356Z" fill="white"/>
<path fill-rule="evenodd" clip-rule="evenodd" d="M4.6955 3.577H0.0015V4.077C-0.0005 6.701 -0.0005 9.325 0.0015 11.95V12.449H4.6955L8.8215 16.026H10.2845V0H8.8215L4.6955 3.577Z" fill="white"/>
</svg>
