<svg width="504" height="50" viewBox="0 0 504 50" fill="none" xmlns="http://www.w3.org/2000/svg">
<path d="M461.445 48.6011H469.85V34.6027L477.304 26.88L493.646 48.6011H503.891L483.042 21.0919L503.002 0.346023H492.539L469.85 24.6151V0.346023H461.445V48.6011ZM420.449 24.2533V8.05299H432.69C438.975 8.05299 442.592 10.8055 442.592 16.0431V16.1846C442.592 21.1548 438.772 24.2533 432.753 24.2533H420.449ZM412.045 48.6011H420.449V31.7873H430.975L442.733 48.6011H452.713L439.801 30.3403C446.428 28.4057 451.153 23.6557 451.153 15.7285V15.5869C451.153 11.3874 449.719 7.86425 447.192 5.17467C444.121 2.13907 439.396 0.346023 433.392 0.346023H412.06V48.6011H412.045ZM372.655 29.428L380.857 10.1292L389.122 29.428H372.655ZM356.048 48.6011H364.656L369.583 36.9462H392.21L397.059 48.6011H405.947L384.896 0H377.099L356.048 48.6011ZM328.744 25.433V8.06872H338.521C344.805 8.06872 348.844 10.9628 348.844 16.6879V16.8295C348.844 21.8626 344.883 25.4487 338.521 25.4487H328.744V25.433ZM320.339 48.6011H328.744V33.0928H338.24C348.828 33.0928 357.373 27.3676 357.373 16.625V16.4835C357.373 6.76326 350.403 0.346023 339.191 0.346023H320.323V48.6011H320.339ZM254.05 48.6011H289.869V41.0199H262.455V28.1226H286.438V20.4628H262.455V7.91143H289.526V0.330297H254.05V48.5853V48.6011ZM221.928 49.356C234.434 49.356 242.496 42.1209 242.496 27.7136V0.346023H234.091V28.1226C234.091 37.0092 229.506 41.4918 222.068 41.4918C214.63 41.4918 209.967 36.8047 209.967 27.7765V0.346023H201.562V28.1226C201.562 42.1209 209.562 49.356 221.928 49.356ZM148.31 48.6011H156.575V14.2658L182.959 48.6011H190.008V0.346023H181.743V33.7062L156.107 0.346023H148.31V48.6011ZM102.512 48.6011H138.331V41.0199H110.917V28.1226H134.916V20.4628H110.917V7.91143H137.988V0.330297H102.512V48.5853V48.6011ZM66.9744 48.9471H74.4905L94.3099 0.346023H85.2189L70.8728 37.4338L56.4487 0.346023H47.155L66.9744 48.9471ZM16.6072 29.428L24.8094 10.1292L33.074 29.428H16.6072ZM0 48.6011H8.60765L13.5352 36.9462H36.1615L41.0111 48.6011H49.8994L28.8481 0H21.0513L0 48.6011Z" fill="white"/>
</svg>
