<svg width="268" height="50" viewBox="0 0 268 50" fill="none" xmlns="http://www.w3.org/2000/svg">
<path d="M157.865 48.832C157.865 48.832 157.197 41.4697 157.197 24.8083C157.197 8.14702 157.849 0.88482 157.865 0.818041H146.613C146.613 0.818041 147.281 8.14702 147.281 24.8083C147.281 41.4697 146.63 48.7653 146.63 48.832H157.865Z" fill="white"/>
<path d="M137.715 0.818041C134.159 12.2372 128.816 26.3276 123.524 38.2142C118.232 26.2942 112.89 12.2205 109.334 0.818041H97.1799C104.642 16.4109 110.97 31.937 116.98 48.832H125.21L125.327 48.5148C132.489 28.7149 136.596 18.8316 145.044 0.801346H137.731L137.715 0.818041Z" fill="white"/>
<path d="M198.851 48.832V43.8904H176.279C176.113 40.2509 175.929 34.124 175.929 24.8083C175.929 15.4927 176.113 9.39912 176.279 5.75968H198.851V0.818041H165.344C165.344 0.818041 166.012 8.14702 166.012 24.8083C166.012 41.4697 165.361 48.7653 165.344 48.832H198.851Z" fill="white"/>
<path d="M197.465 21.8534H175.361L179.618 27.0955H197.465V21.8534Z" fill="white"/>
<path d="M260.17 0.818041C256.614 12.2205 251.289 26.3109 245.98 38.2142C243.459 32.5547 240.871 26.2942 238.434 19.9335C240.654 14.708 243.476 8.5143 247.065 0.818041H239.753C239.753 0.818041 236.481 10.5177 235.763 12.6379C235.045 10.5177 231.773 0.834736 231.773 0.834736H220.821C225.295 10.3674 228.567 17.6964 231.339 24.4411C229.469 29.1657 227.482 33.8736 225.562 38.2142C219.853 26.5613 214.36 13.1721 209.769 0.818041H200.42C208.851 18.8483 213.091 29.0488 220.237 48.832H227.232C227.232 48.832 233.158 33.0221 233.943 30.952C234.728 33.0221 240.638 48.832 240.638 48.832H247.633C254.795 29.0488 259.018 18.8483 267.449 0.818041H260.137H260.17Z" fill="white"/>
<path d="M21.8701 19.633C17.8133 17.7465 14.3575 16.2106 14.3575 13.1053C14.3575 10.8182 16.294 9.08192 20.1505 9.08192C21.5362 9.08192 22.7048 9.19879 23.8734 9.4826C24.4911 9.54937 25.1088 9.61615 25.7266 9.61615C28.9653 9.61615 30.9019 7.72965 32.1373 4.02343L32.6882 2.48751C32.1373 2.35395 26.6948 0 19.5829 0C8.28058 0 2.35395 7.06186 2.35395 14.3908C2.35395 18.0804 3.52258 20.7849 5.39239 22.8551C7.79643 25.5429 11.1855 27.3626 14.3408 28.8318C19.032 31.0522 23.239 32.7383 23.239 36.0272C23.239 38.9822 20.1338 40.6683 16.0102 40.6683C10.2839 40.6683 5.32561 37.4462 4.69121 37.1123L0 45.5766C0.818041 46.044 6.89492 49.817 16.7615 49.817C27.3125 49.817 35.2258 43.9071 35.2258 34.8252C35.2258 25.7432 27.8635 22.4544 21.8534 19.633" fill="white"/>
<path d="M63.106 23.8567L82.2048 1.01838H68.6153L53.3062 20.7181H53.156V1.01838H41.9204V49.3496H42.5381C47.4297 49.3496 53.156 47.1959 53.156 39.3327V28.164H53.4398L69.0159 48.7986H83.2231L63.0893 23.8567H63.106Z" fill="white"/>
</svg>
