<svg width="17" height="23" viewBox="0 0 17 23" fill="none" xmlns="http://www.w3.org/2000/svg">
<g clip-path="url(#clip0_7872_3402)">
<path d="M2.34155 1.21692C3.4991 0.368556 4.8721 0.555862 5.75171 1.68274C6.29353 2.3772 6.564 3.21352 6.78394 4.15637C7.06017 5.34005 7.02629 6.45927 6.54663 7.54797C6.21381 8.3033 6.06933 9.1069 6.12476 9.94348C6.13307 10.0695 6.12959 10.1433 6.1228 10.1857H6.12183C6.08637 10.2015 6.02249 10.2239 5.90991 10.2472C4.74981 10.4871 3.58655 10.7133 2.42065 10.9288C2.30179 10.9508 2.23145 10.9554 2.19019 10.9542C2.17049 10.9237 2.14099 10.869 2.10229 10.7716C1.53391 9.34096 1.02898 7.93862 0.809326 6.4679C0.752312 6.08674 0.730486 5.72334 0.689209 5.297C0.692783 4.31888 0.907584 3.39175 1.31519 2.49915C1.55377 1.97724 1.8896 1.54826 2.34155 1.21692Z" stroke="white" stroke-width="1.1" stroke-miterlimit="10"/>
<path d="M11.2314 6.70435C12.289 5.17279 14.2316 5.35893 15.209 6.61548C15.95 7.56818 16.2695 8.66912 16.3076 9.89575L16.3115 10.1428C16.3068 11.1518 16.1255 12.1405 15.8145 13.1125C15.5456 13.9527 15.2413 14.7849 14.9229 15.6174V15.6184C14.878 15.7358 14.8448 15.7988 14.8223 15.8323H14.8213C14.8194 15.8324 14.8175 15.8332 14.8154 15.8333C14.7702 15.8345 14.6948 15.8281 14.5684 15.8049C13.4216 15.5952 12.2757 15.3781 11.1338 15.1497C11.0111 15.1251 10.9364 15.1032 10.8896 15.0862C10.8847 15.034 10.8835 14.9521 10.8916 14.8206V14.8196C10.9341 14.1242 10.8292 13.4627 10.5996 12.8284L10.4941 12.5579C9.71274 10.7078 10.064 8.93665 10.9697 7.1106C11.03 6.9891 11.1105 6.87947 11.2314 6.70435Z" stroke="white" stroke-width="1.1" stroke-miterlimit="10"/>
<path d="M6.56079 12.251C6.82102 13.0281 7.04387 13.7708 7.04517 14.9062L7.04614 14.957C7.04684 15.8226 6.47139 16.5987 5.32251 16.7539C4.56005 16.8568 3.95886 16.5839 3.50122 15.9541C3.29727 15.6731 3.1326 15.3399 3.03735 15.0107C2.85483 14.3797 2.71871 13.7264 2.61938 13.0684C2.60721 12.9876 2.60558 12.9349 2.60669 12.9023C2.64097 12.8881 2.69816 12.8695 2.79028 12.8506C3.98898 12.6055 5.19337 12.3793 6.40063 12.165C6.45777 12.1549 6.49529 12.1542 6.51782 12.1543L6.56079 12.251Z" stroke="white" stroke-width="1.1" stroke-miterlimit="10"/>
<path d="M10.4752 17.0365C10.4999 17.0338 10.5567 17.0332 10.6627 17.0531C11.8455 17.2742 13.0257 17.5054 14.2008 17.7543C14.3189 17.7793 14.3899 17.8035 14.4313 17.8217C14.4321 17.8407 14.4335 17.8652 14.4313 17.8969L14.4127 18.0511C14.3205 18.6087 14.2021 19.1646 14.0641 19.7162C13.9477 20.1814 13.7275 20.599 13.4049 20.9574C12.9907 21.4176 12.5155 21.6228 12.0719 21.6156L12.0631 21.6166C10.7764 21.6176 9.90316 20.7107 9.92834 19.5072L9.94495 19.2621C10.0264 18.5748 10.2252 17.8932 10.4293 17.1586C10.4482 17.0908 10.4649 17.0542 10.4752 17.0365Z" stroke="white" stroke-width="1.1" stroke-miterlimit="10"/>
</g>
<defs>
<clipPath id="clip0_7872_3402">
<rect width="17" height="22.3058" fill="white"/>
</clipPath>
</defs>
</svg>
