<svg width="27" height="15" viewBox="0 0 27 15" fill="none" xmlns="http://www.w3.org/2000/svg">
<path d="M0.536499 0.051178V0.0521545C0.831315 0.035202 1.0906 0.244177 1.13611 0.53653L2.07166 6.57169L2.08142 6.59024C2.08669 6.59487 2.09364 6.59797 2.10095 6.59805L3.4613 6.58926C4.13293 6.58753 5.02287 6.58731 6.13025 6.58731C6.42359 6.58679 6.67218 6.59985 6.87537 6.62735C7.0778 6.65475 7.23835 6.69633 7.35388 6.7543C7.73216 6.94289 7.95196 7.2154 8.07556 7.54727C8.19824 7.87676 8.22605 8.26383 8.22498 8.68106C8.22177 9.82824 8.22238 11.4456 8.22986 13.5316C8.23094 13.8324 8.00049 14.0819 7.70154 14.1088L7.69666 14.1098H7.68396V14.1088C7.40902 14.1331 7.17105 13.917 7.17224 13.641L7.17712 9.53946C7.17712 9.49977 7.14455 9.46719 7.10486 9.46719H1.99255C1.97816 9.46719 1.96469 9.47308 1.95447 9.48184L1.93494 9.517L1.27283 13.6625C1.22575 13.9555 0.951099 14.1559 0.657593 14.1088V14.1078L0.594116 14.099C0.323086 14.0562 0.138801 13.8006 0.18396 13.5297L1.1615 7.62344V7.62247C1.16471 7.60451 1.16628 7.58617 1.16638 7.56778L1.16248 7.51309L0.0560303 0.62735C0.00973951 0.338923 0.22015 0.0726248 0.511108 0.051178H0.536499ZM2.33044 7.66153C2.2551 7.66235 2.19114 7.71645 2.17908 7.79044L2.08533 8.35001C2.08103 8.38028 2.09756 8.40822 2.12244 8.42032L2.15076 8.42618L7.13416 8.44669L7.15369 8.43985C7.15889 8.43562 7.16303 8.42989 7.16443 8.42325V8.42227C7.2006 8.24709 7.18823 8.11555 7.14685 8.01602C7.10571 7.91711 7.03345 7.84459 6.93787 7.79141C6.74294 7.68315 6.45922 7.65772 6.18298 7.65665C5.53827 7.65398 4.89462 7.65305 4.25232 7.65372L2.33044 7.66153Z" fill="white" stroke="white" stroke-width="0.1"/>
<path d="M26.0692 0.0584717L26.1093 0.0643311C26.3456 0.101817 26.5143 0.30185 26.5233 0.531128L26.5175 0.630737C25.9267 4.18064 25.5717 6.351 25.451 7.14441C25.4401 7.21728 25.4371 7.34394 25.4413 7.52527L25.4452 7.56042L26.4227 13.5829C26.4643 13.8438 26.2876 14.0899 26.0262 14.1317H26.0253L25.9481 14.1434C25.6729 14.1883 25.4138 13.9994 25.37 13.7245L24.6893 9.49207C24.6869 9.47716 24.6736 9.4657 24.6571 9.4657H19.5331C19.5128 9.4657 19.4962 9.48157 19.496 9.50183V13.6962C19.496 13.9399 19.3051 14.1335 19.0731 14.1483L18.9716 14.1434L18.8934 14.1317C18.6167 14.0872 18.4139 13.8437 18.4198 13.5624C18.4326 12.895 18.4361 11.1767 18.4286 8.40613C18.4286 8.06092 18.4699 7.73094 18.5985 7.44324C18.7116 7.19024 18.891 6.97142 19.1639 6.80457L19.287 6.73621C19.3069 6.72577 19.3286 6.71872 19.3495 6.71375L19.8583 6.58582C19.8737 6.58197 19.8909 6.57898 19.91 6.57898L24.4237 6.59363H24.4247C24.4557 6.594 24.4833 6.57083 24.4882 6.53894V6.53796L25.452 0.504761C25.4991 0.21154 25.7748 0.011373 26.0692 0.0584717ZM20.496 7.6571C20.2237 7.65712 19.9444 7.68038 19.7518 7.78601C19.6572 7.83798 19.5847 7.90945 19.5438 8.00671C19.5131 8.08001 19.4991 8.1712 19.5087 8.28503L19.5262 8.4071L19.537 8.42468C19.5421 8.42868 19.5489 8.43054 19.5555 8.43054H24.4706C24.5 8.43043 24.5242 8.41106 24.5321 8.38464L24.5341 8.35632L24.4442 7.80457V7.80359C24.4329 7.73093 24.3707 7.67746 24.2968 7.67664C23.0353 7.66275 21.7681 7.65604 20.496 7.6571Z" fill="white" stroke="white" stroke-width="0.1"/>
<path d="M19.3474 2.52881C19.616 2.52881 19.8393 2.73565 19.8572 3.00342L19.8601 3.05029L19.863 3.15088C19.8452 3.38006 19.6534 3.56689 19.4128 3.56689H13.783V12.9858C13.783 12.9913 13.7872 12.9956 13.7927 12.9956H15.613C15.9103 12.9956 16.1578 13.2239 16.1814 13.519L16.1853 13.5737C16.2068 13.8463 15.9915 14.0806 15.7166 14.0806H10.9441C10.6731 14.0803 10.4529 13.8604 10.4529 13.5894V13.5278C10.4529 13.2342 10.6905 12.9966 10.9841 12.9966H12.7234C12.7595 12.9965 12.7898 12.967 12.7898 12.9292V3.60889C12.7898 3.58843 12.7722 3.5708 12.7517 3.5708H7.22241C6.9494 3.57071 6.72741 3.34998 6.72729 3.07666V3.02002C6.72729 2.74876 6.94731 2.52881 7.21948 2.52881H19.3474Z" fill="white" stroke="white" stroke-width="0.1"/>
</svg>
