<svg width="26" height="22" viewBox="0 0 26 22" fill="none" xmlns="http://www.w3.org/2000/svg">
<path d="M0.550171 21.3651L2.61356 14.1014C2.71457 13.7464 3.34635 13.4816 4.09292 13.4816H21.0074C21.754 13.4816 22.3858 13.7464 22.4868 14.1014L24.5502 21.3651" stroke="white" stroke-width="1.1" stroke-linecap="round" stroke-linejoin="round"/>
<path d="M5.40356 21.3651L6.63223 17.7333C6.69222 17.5557 7.06842 17.4235 7.51317 17.4235H17.5861C18.0309 17.4235 18.4071 17.5557 18.4671 17.7333L19.6958 21.3651" stroke="white" stroke-width="1.1" stroke-linecap="round" stroke-linejoin="round"/>
<path d="M13.3721 5.38785H7.55017V13.4813H13.3721V5.38785Z" stroke="white" stroke-width="1.1" stroke-linecap="round" stroke-linejoin="round"/>
<path d="M11.5502 7.4173L9.55017 7.4173" stroke="white" stroke-width="1.1" stroke-linecap="round" stroke-linejoin="round"/>
<path d="M11.5502 9.4173H9.55017" stroke="white" stroke-width="1.1" stroke-linecap="round" stroke-linejoin="round"/>
<path d="M11.9568 5.38782V0.549988L17.5837 4.20752V13.4816" stroke="white" stroke-width="1.1" stroke-linecap="round" stroke-linejoin="round"/>
<path d="M15.5502 6.4173L13.5502 6.4173" stroke="white" stroke-width="1.1" stroke-linecap="round" stroke-linejoin="round"/>
</svg>
