<svg width="17" height="19" viewBox="0 0 17 19" fill="none" xmlns="http://www.w3.org/2000/svg">
<g clip-path="url(#clip0_7872_3386)">
<path d="M1.86544 5.00187H1.8365C1.56397 5.00308 1.33848 4.79206 1.3216 4.52074C1.26613 3.65615 1.30231 3.02429 1.42892 2.62395C1.87629 1.22155 2.84338 0.355755 4.33018 0.0253535C4.48333 -0.0084102 4.73896 -0.0084102 5.0971 0.0241476C5.38047 0.0494704 5.63129 0.0964983 5.85075 0.164026C6.92998 0.496839 7.67761 1.20226 8.09363 2.27908C8.11171 2.3249 8.12377 2.37193 8.13101 2.42016C8.17683 2.71318 8.20094 3.35951 8.20456 4.36157C8.213 6.68282 8.22265 6.42115 8.23109 8.87987C8.2323 9.16083 8.01042 9.39115 7.72946 9.402H7.70775C7.43523 9.41406 7.20853 9.19701 7.20733 8.92449C7.19165 6.11125 7.18442 6.14863 7.18683 3.73091C7.18683 2.56125 6.67676 1.7473 5.65058 1.28908C4.96446 0.984 4.42786 1.16367 3.75258 1.40725C3.0749 1.65324 2.56724 2.49975 2.39842 3.1919C2.38998 3.22808 2.38154 3.26425 2.37551 3.30043C2.36345 3.37037 2.35742 3.77191 2.35863 4.50627C2.35863 4.77879 2.13796 5.00067 1.86544 5.00187Z" fill="white"/>
<path d="M9.29703 9.43577C9.0016 9.43697 8.76284 9.1958 8.76646 8.90037C8.7761 8.08281 8.7749 8.32277 8.76163 4.31455C8.75802 3.40654 8.8159 2.76383 8.93286 2.3876C9.1885 1.56763 9.69858 0.933356 10.4643 0.485988C11.1359 0.0928823 11.8317 -0.0506133 12.5516 0.055501C13.3366 0.171262 13.9841 0.471517 14.4942 0.957473C15.5361 1.94988 15.9328 3.18105 15.6844 4.65218C15.6639 4.76915 15.5795 4.87767 15.4312 4.97776C15.1586 5.16225 14.8053 5.04529 14.6787 4.75347C14.6642 4.71971 14.657 4.68233 14.6558 4.64615C14.6546 4.60757 14.6546 4.23255 14.6558 3.52231C14.6558 3.46684 14.6148 3.27028 14.5292 2.93144C14.4918 2.78795 14.3013 2.4901 13.9576 2.03791C13.5742 1.53387 12.8868 1.1275 12.2381 1.1492C10.8912 1.19382 9.94457 2.02947 9.89392 3.3969C9.88789 3.56089 9.88066 3.61636 9.86981 8.86902C9.8686 9.18134 9.61658 9.43456 9.30426 9.43577H9.29703Z" fill="white"/>
<path d="M11.0732 15.928C12.1066 15.9196 11.9402 15.9208 15.3974 15.9292C15.9533 15.9304 16.268 15.9425 16.3416 15.9678C16.9228 16.1668 17.0132 16.8963 16.9987 17.4679C16.9782 18.2553 16.4863 18.8389 15.7061 18.9656C15.653 18.974 1.46505 18.9704 1.40717 18.9631C0.513641 18.8534 0.0457729 18.3578 0.00356836 17.4763C-0.0314011 16.7468 0.213385 15.9244 1.06712 15.9232C3.22398 15.9216 4.82976 15.922 5.88447 15.9244C5.93994 15.9244 5.98456 15.8786 5.98456 15.8231V13.9866C5.98456 13.9456 5.9508 13.9119 5.9098 13.9107L4.56046 13.8781C4.53513 13.8781 4.50981 13.8745 4.4869 13.866C4.41093 13.8419 4.24573 13.8106 3.9913 13.7732C2.79631 13.5959 1.87866 12.6216 1.62061 11.4664C1.53981 11.1035 1.56031 10.837 1.68452 10.6657C1.85454 10.4306 2.0933 10.3088 2.40079 10.2979C2.80716 10.2847 3.66934 10.2811 4.98853 10.2895C5.05485 10.2907 11.8413 10.2871 11.8836 10.2883C12.7698 10.2943 13.7056 10.2907 14.6896 10.2799C14.8282 10.2787 14.9705 10.3667 15.114 10.5464C15.1405 10.5801 15.1562 10.6211 15.1598 10.6645C15.1972 11.294 15.0561 11.8306 14.7342 12.2731C14.704 12.3153 14.6003 12.4612 14.4219 12.712C14.0275 13.2667 13.2425 13.7913 12.5058 13.7889C12.2694 13.7889 12.027 13.8672 11.728 13.8829C11.1564 13.9119 11.7545 13.9179 11.1118 13.8998C11.0563 13.8986 11.0105 13.942 11.0105 13.9975V15.8653C11.0105 15.9003 11.0383 15.928 11.0732 15.928ZM2.78184 11.5942C3.26658 12.9026 5.05726 12.788 6.17629 12.7916C8.73147 12.8013 9.09081 12.8001 12.0789 12.7892C12.1163 12.7892 12.1525 12.7856 12.1886 12.7784L12.7614 12.6638C12.7771 12.6602 12.7916 12.6566 12.8048 12.6505C13.2884 12.4323 13.6549 12.0995 13.9033 11.6521C13.966 11.54 13.9709 11.4568 13.9166 11.4025C13.9033 11.3892 13.8853 11.382 13.8672 11.382H2.92895C2.81922 11.382 2.74325 11.4917 2.78184 11.5942ZM9.9747 13.9697C9.9747 13.9275 9.94094 13.8938 9.89873 13.8938L7.05053 13.8986C7.00832 13.8986 6.97456 13.9324 6.97456 13.9746L6.97938 15.8581C6.97938 15.9003 7.01314 15.9341 7.05535 15.9341L9.90355 15.9292C9.94576 15.9292 9.97952 15.8955 9.97952 15.8533L9.9747 13.9697ZM15.9895 17.3618C15.9895 17.1652 15.8303 17.0061 15.6337 17.0061H1.48435C1.28779 17.0061 1.12862 17.1652 1.12862 17.3618V17.6222C1.12862 17.8188 1.28779 17.978 1.48435 17.978H15.6337C15.8303 17.978 15.9895 17.8188 15.9895 17.6222V17.3618Z" fill="white"/>
</g>
<defs>
<clipPath id="clip0_7872_3386">
<rect width="17" height="18.9704" fill="white"/>
</clipPath>
</defs>
</svg>
