<svg width="78" height="101" viewBox="0 0 78 101" fill="none" xmlns="http://www.w3.org/2000/svg">
<path d="M38.127 0.509766C59.7559 0.0306974 77.5023 17.3817 77.5 38.7695C77.5 48.2858 71.7889 57.0654 68.3057 62.4043V62.4053C68.0661 62.7737 67.8411 63.1193 67.6318 63.4434L67.0537 64.3525C65.0928 67.5032 58.9587 75.3708 53.1777 82.6162C47.4088 89.8465 42.025 96.4162 41.585 96.9521H41.584L38.918 100.202L36.3096 96.9072C35.4026 95.7612 14.9838 69.948 10.3438 63.1934L9.94531 62.6006C9.48318 61.8952 8.97294 61.1602 8.44141 60.3887V60.3877L7.78711 59.4395C4.46231 54.5918 0.411943 48.11 0.501953 38.4512C0.697146 17.8658 17.4191 0.969186 38.127 0.509766Z" fill="#371C1D" stroke="#371C1D"/>
</svg>
