<svg width="30" height="31" viewBox="0 0 30 31" fill="none" xmlns="http://www.w3.org/2000/svg">
<path d="M27.4411 30.5625C28.0279 31.1472 28.9777 31.1456 29.5625 30.5589C30.1472 29.9721 30.1456 29.0223 29.5589 28.4375L27.4411 30.5625ZM22.4933 12.7086C22.4933 18.0657 18.1343 22.4172 12.7466 22.4172V25.4172C19.7816 25.4172 25.4933 19.7321 25.4933 12.7086H22.4933ZM12.7466 22.4172C7.35892 22.4172 3 18.0657 3 12.7086H0C0 19.7321 5.71166 25.4172 12.7466 25.4172V22.4172ZM3 12.7086C3 7.35147 7.35892 3 12.7466 3V0C5.71166 0 0 5.68504 0 12.7086H3ZM12.7466 3C18.1343 3 22.4933 7.35147 22.4933 12.7086H25.4933C25.4933 5.68504 19.7816 0 12.7466 0V3ZM18.4945 21.6461C20.2414 23.3871 22.4781 25.6162 24.278 27.41C25.178 28.307 25.9688 29.0951 26.5346 29.6589C26.8175 29.9409 27.0441 30.1667 27.2 30.3222C27.278 30.3998 27.3383 30.4599 27.379 30.5006C27.3994 30.5209 27.415 30.5364 27.4254 30.5468C27.4306 30.5519 27.4346 30.5559 27.4372 30.5585C27.4385 30.5598 27.4395 30.5608 27.4401 30.5615C27.4403 30.5617 27.4408 30.5622 27.4409 30.5622C27.441 30.5623 27.441 30.5624 27.4411 30.5624C27.4411 30.5624 27.4411 30.5625 28.5 29.5C29.5589 28.4375 29.5588 28.4375 29.5588 28.4375C29.5588 28.4374 29.5587 28.4374 29.5586 28.4373C29.5584 28.4371 29.5582 28.4369 29.5579 28.4366C29.5572 28.4359 29.5562 28.4349 29.5549 28.4336C29.5523 28.431 29.5483 28.427 29.5431 28.4219C29.5327 28.4115 29.5172 28.396 29.4968 28.3757C29.456 28.335 29.3957 28.2749 29.3177 28.1972C29.1618 28.0418 28.9352 27.816 28.6523 27.534C28.0865 26.9702 27.2957 26.182 26.3957 25.2851C24.5958 23.4913 22.3592 21.2622 20.6122 19.5212L18.4945 21.6461Z" fill="#222222"/>
</svg>
