<svg width="36" height="33" viewBox="0 0 36 33" fill="none" xmlns="http://www.w3.org/2000/svg">
<path d="M35 31L27.7614 23.7614M27.7614 23.7614C30.1743 21.3486 31.6667 18.0152 31.6667 14.3333C31.6667 6.96954 25.6971 1 18.3333 1C10.9695 1 5 6.96954 5 14.3333C5 21.6971 10.9695 27.6667 18.3333 27.6667C22.0152 27.6667 25.3486 26.1743 27.7614 23.7614Z" stroke="white" stroke-width="2" stroke-linecap="round" stroke-linejoin="round"/>
<path d="M15.4717 5.65251C20.0833 4.02771 25.1389 6.44897 26.7637 11.0605" stroke="white" stroke-width="2" stroke-linecap="round" stroke-linejoin="round"/>
<path d="M14 27V30C14 30.0506 13.9786 30.2003 13.7236 30.4414C13.4666 30.6845 13.0405 30.9488 12.4316 31.1924C11.2194 31.6773 9.47638 32 7.5 32C5.52362 32 3.78059 31.6773 2.56836 31.1924C1.9595 30.9488 1.53343 30.6845 1.27637 30.4414C1.02142 30.2003 1 30.0506 1 30V27H14Z" fill="#804F3A" stroke="white" stroke-width="2"/>
<path d="M14 23V26C14 26.0506 13.9786 26.2003 13.7236 26.4414C13.4666 26.6845 13.0405 26.9488 12.4316 27.1924C11.2194 27.6773 9.47638 28 7.5 28C5.52362 28 3.78059 27.6773 2.56836 27.1924C1.9595 26.9488 1.53343 26.6845 1.27637 26.4414C1.02142 26.2003 1 26.0506 1 26V23H14Z" fill="#804F3A" stroke="white" stroke-width="2"/>
<path d="M7.5 20C9.47638 20 11.2194 20.3227 12.4316 20.8076C13.0405 21.0512 13.4666 21.3155 13.7236 21.5586C13.9786 21.7997 14 21.9494 14 22C14 22.0506 13.9786 22.2003 13.7236 22.4414C13.4666 22.6845 13.0405 22.9488 12.4316 23.1924C11.2194 23.6773 9.47638 24 7.5 24C5.52362 24 3.78059 23.6773 2.56836 23.1924C1.9595 22.9488 1.53343 22.6845 1.27637 22.4414C1.02142 22.2003 1 22.0506 1 22C1 21.9494 1.02142 21.7997 1.27637 21.5586C1.53343 21.3155 1.9595 21.0512 2.56836 20.8076C3.78059 20.3227 5.52362 20 7.5 20Z" fill="#804F3A" stroke="white" stroke-width="2"/>
</svg>
