<svg width="38" height="38" viewBox="0 0 38 38" fill="none" xmlns="http://www.w3.org/2000/svg">
<path d="M11.7337 28.0124C11.3628 27.071 10.9785 26.0956 10.5682 25.1607L10.5636 25.1559L7.18545 17.4792C6.99778 17.0964 6.96574 16.6237 7.10764 16.184C7.24954 15.7444 7.55165 15.3852 7.95447 15.1772C10.527 13.8489 13.6672 14.9266 14.9535 17.5832L15.6767 19.0628L15.7042 4.25774C15.7042 4.20102 15.7133 4.13957 15.7225 4.08284C16.0246 2.4142 17.4299 1.16626 19.0595 1.11899C20.7669 1.06227 22.2774 2.34802 22.5933 4.08284C22.607 4.14429 22.6116 4.20102 22.6116 4.26247V8.71533C23.0648 8.47425 23.5683 8.33717 24.1039 8.32299H24.1817C25.6373 8.32299 26.9282 9.29203 27.4271 10.6676C27.9352 10.3462 28.5257 10.1618 29.1574 10.1523C30.8145 10.124 32.2838 11.3956 32.5997 13.0595C33.149 12.7475 33.7761 12.5868 34.4398 12.6293C36.106 12.7333 37.4656 14.0711 37.6761 15.8201C37.6807 15.8579 37.6807 15.9004 37.6807 15.9382V27.0893C37.6807 27.1365 37.6761 27.1838 37.6716 27.2311L37.6715 27.2311C37.4335 32.5963 33.1353 36.8884 27.8803 36.8884H21.8517C18.057 36.8884 14.4637 34.4871 12.9119 30.9135C12.5045 29.9728 12.1246 29.0132 11.7629 28.0867L11.7337 28.0124Z" fill="white"/>
<path d="M10.5682 25.1568C10.9894 26.1163 11.383 27.1185 11.7629 28.0828C12.1246 29.0093 12.5045 29.9689 12.9119 30.9096C14.4637 34.4832 18.057 36.8845 21.8517 36.8845H27.8803C33.1353 36.8845 37.4335 32.5924 37.6715 27.2272C37.6761 27.1799 37.6807 27.1327 37.6807 27.0854V15.9343C37.6807 15.8965 37.6807 15.854 37.6761 15.8161C37.4656 14.0671 36.106 12.7294 34.4398 12.6254C33.7761 12.5829 33.149 12.7436 32.5997 13.0556C32.2838 11.3917 30.8145 10.1201 29.1574 10.1484C28.5257 10.1579 27.9352 10.3422 27.4271 10.6637C26.9282 9.28812 25.6373 8.31908 24.1817 8.31908C24.1542 8.31908 24.1313 8.31908 24.1039 8.31908C23.5683 8.33326 23.0648 8.47035 22.6116 8.71142V4.25856C22.6116 4.19711 22.607 4.14039 22.5933 4.07894C22.2774 2.34412 20.7669 1.05836 19.0595 1.11509C17.4299 1.16236 16.0246 2.41029 15.7225 4.07894C15.7133 4.13566 15.7042 4.19711 15.7042 4.25384L15.6767 19.0589L14.9535 17.5793C13.6672 14.9227 10.527 13.845 7.95447 15.1733C7.55165 15.3813 7.24954 15.7405 7.10764 16.1801C6.96574 16.6197 6.99778 17.0924 7.18545 17.4753L10.5636 25.152L10.5682 25.1568ZM13.2781 18.4538L15.7728 23.5732C15.9697 23.975 16.4045 24.183 16.8302 24.0837C17.2514 23.9797 17.5535 23.5921 17.5535 23.143L17.5855 4.36728C17.7549 3.62987 18.382 3.08626 19.1098 3.06262C19.8788 3.03899 20.5472 3.59678 20.7257 4.36728V18.6524C20.7257 19.1865 21.1468 19.6214 21.6641 19.6214C22.1813 19.6214 22.6024 19.1865 22.6024 18.6524V11.7178C22.7032 10.9048 23.3532 10.2808 24.1359 10.2619H24.1725C24.9553 10.2619 25.6373 10.8811 25.7472 11.6989V13.6039C25.7472 13.6039 25.7472 13.6134 25.7472 13.6181V18.6524C25.7472 19.1865 26.1683 19.6214 26.6856 19.6214C27.2028 19.6214 27.624 19.1865 27.624 18.6524V13.6323C27.6743 12.7814 28.3518 12.1054 29.1711 12.0913C29.1803 12.0913 29.1849 12.0913 29.194 12.0913C30.0134 12.0913 30.7138 12.7767 30.7641 13.6275V15.9343C30.7641 15.9343 30.7641 15.9721 30.7687 15.9863V18.6476C30.7687 19.1818 31.1898 19.6167 31.7071 19.6167C32.2243 19.6167 32.6455 19.1818 32.6455 18.6476V15.9958C32.7782 15.1496 33.5015 14.5115 34.3071 14.5588C35.0395 14.606 35.6666 15.2158 35.781 15.9958V26.7592C35.781 31.2688 32.2289 34.937 27.862 34.937H21.8334C18.7665 34.937 15.8644 32.9989 14.6056 30.1107C14.2119 29.2078 13.8411 28.2624 13.4841 27.3548C13.0996 26.3669 12.6968 25.3506 12.2573 24.3532L8.94779 16.8325C10.5591 16.1092 12.4587 16.8136 13.2552 18.4538H13.2781Z" fill="#222222"/>
<path d="M32.411 1.11719L35.7639 4.47013M35.7639 4.47013L32.411 7.82307M35.7639 4.47013H25.7051" stroke="#222222" stroke-width="1.67647"/>
<path d="M5.58904 1.11719L2.2361 4.47013M2.2361 4.47013L5.58904 7.82307M2.2361 4.47013H12.2949" stroke="#222222" stroke-width="1.67647"/>
</svg>
