<svg width="24" height="20" viewBox="0 0 24 20" fill="none" xmlns="http://www.w3.org/2000/svg">
<g clip-path="url(#clip0_3563_5145)">
<path d="M20.7009 0.832031H2.62988V14.0098H20.7009V0.832031Z" stroke="#222222" stroke-width="2" stroke-linecap="round" stroke-linejoin="round"/>
<path d="M20.7202 13.8086L22.51 19.1669H0.82373L2.61353 13.8086" stroke="#222222" stroke-width="2" stroke-linecap="round" stroke-linejoin="round"/>
<path d="M5.90234 5H13.0396" stroke="#222222" stroke-width="2" stroke-linecap="round" stroke-linejoin="round"/>
<path d="M5.90234 8.33203H9.51764" stroke="#222222" stroke-width="2" stroke-linecap="round" stroke-linejoin="round"/>
<path d="M20.7009 0.832031H2.62988V14.0098H20.7009V0.832031Z" stroke="#222222" stroke-width="2" stroke-linecap="round" stroke-linejoin="round"/>
<path d="M20.7202 13.8086L22.51 19.1669H0.82373L2.61353 13.8086" stroke="#222222" stroke-width="2" stroke-linecap="round" stroke-linejoin="round"/>
<path d="M5.90234 5H13.0396" stroke="#222222" stroke-width="2" stroke-linecap="round" stroke-linejoin="round"/>
<path d="M5.90234 8.33203H9.51764" stroke="#222222" stroke-width="2" stroke-linecap="round" stroke-linejoin="round"/>
<path d="M20.7009 0.832031H2.62988V14.0098H20.7009V0.832031Z" stroke="#222222" stroke-width="2" stroke-linecap="round" stroke-linejoin="round"/>
<path d="M20.7202 13.8086L22.51 19.1669H0.82373L2.61353 13.8086" stroke="#222222" stroke-width="2" stroke-linecap="round" stroke-linejoin="round"/>
<path d="M5.90234 5H13.0396" stroke="#222222" stroke-width="2" stroke-linecap="round" stroke-linejoin="round"/>
<path d="M5.90234 8.33203H9.51764" stroke="#222222" stroke-width="2" stroke-linecap="round" stroke-linejoin="round"/>
</g>
<defs>
<clipPath id="clip0_3563_5145">
<rect width="23.3333" height="20" fill="white"/>
</clipPath>
</defs>
</svg>
