<svg width="32" height="32" viewBox="0 0 32 32" fill="none" xmlns="http://www.w3.org/2000/svg">
<path d="M16 9.31944C12.3167 9.31944 9.31944 12.3167 9.31944 16C9.31944 19.6833 12.3167 22.7167 16 22.7167C19.6833 22.7167 22.7167 19.6833 22.7167 16C22.7167 12.3167 19.6833 9.31944 16 9.31944ZM3 16C3 19.5389 3.03611 19.9722 3.07222 21.3806C3.10833 22.7167 3.36111 23.7278 3.68611 24.5222C4.01111 25.3889 4.48056 26.1111 5.16667 26.8333C5.925 27.5194 6.61111 27.9889 7.47778 28.3139C8.30833 28.6389 9.28333 28.8917 10.6556 28.9278C12.0278 28.9639 12.4611 29 16 29C19.5389 29 19.9722 28.9639 21.3806 28.9278C22.7167 28.8917 23.7278 28.6389 24.5222 28.3139C25.3889 27.9889 26.1111 27.5194 26.8333 26.8333C27.5194 26.1111 27.9889 25.3889 28.3139 24.5222C28.6389 23.7278 28.8917 22.7167 28.9278 21.3806C28.9639 19.9722 29 19.5389 29 16C29 12.4611 28.9639 12.0278 28.9278 10.6556C28.8917 9.28333 28.6389 8.30833 28.3139 7.47778C27.9889 6.61111 27.5556 5.925 26.8333 5.16667C26.1111 4.48056 25.3889 4.01111 24.5583 3.68611C23.7278 3.36111 22.7528 3.14444 21.3806 3.07222C19.9722 3.03611 19.5389 3 16 3C12.4611 3 12.0278 3.03611 10.6556 3.07222C9.28333 3.10833 8.30833 3.36111 7.47778 3.68611C6.61111 4.01111 5.925 4.48056 5.16667 5.16667C4.48056 5.925 4.01111 6.61111 3.68611 7.47778C3.36111 8.30833 3.10833 9.28333 3.07222 10.6194C3.03611 12.0278 3 12.4611 3 16ZM5.38333 16C5.38333 12.5333 5.38333 12.1 5.41944 10.7278C5.49167 9.46389 5.67222 8.77778 5.85278 8.30833C6.10556 7.69445 6.39444 7.26111 6.82778 6.82778C7.29722 6.39444 7.73056 6.10556 8.34444 5.85278C8.81389 5.67222 9.5 5.49167 10.7278 5.38333C12.1361 5.38333 12.5333 5.34722 16 5.34722C19.4667 5.34722 19.9 5.38333 21.2722 5.38333C22.5361 5.49167 23.2222 5.67222 23.6917 5.85278C24.3056 6.10556 24.7389 6.39444 25.1722 6.82778C25.6056 7.26111 25.8944 7.69445 26.1472 8.30833C26.3278 8.77778 26.5444 9.5 26.6167 10.7278C26.6167 12.1361 26.6528 12.5333 26.6528 16C26.6528 19.4667 26.6167 19.8639 26.6167 21.2722C26.5444 22.5 26.3278 23.1861 26.1472 23.6556C25.8944 24.2694 25.6056 24.7028 25.1722 25.1722C24.7389 25.6056 24.3056 25.8944 23.6917 26.1111C23.2222 26.2917 22.5361 26.5083 21.2722 26.5806C19.8639 26.6167 19.4667 26.6167 16 26.6167C12.5333 26.6167 12.1361 26.6167 10.7278 26.5806C9.5 26.5083 8.81389 26.2917 8.34444 26.1111C7.73056 25.8944 7.29722 25.6056 6.82778 25.1722C6.39444 24.7028 6.10556 24.2694 5.85278 23.6556C5.67222 23.1861 5.49167 22.5 5.41944 21.2722C5.38333 19.8639 5.38333 19.4667 5.38333 16ZM11.6667 16C11.6667 13.6167 13.6167 11.6667 16 11.6667C18.3833 11.6667 20.3333 13.6167 20.3333 16C20.3333 18.3833 18.3833 20.3333 16 20.3333C13.6167 20.3333 11.6667 18.3833 11.6667 16ZM21.4167 9.06667C21.4167 9.89722 22.1028 10.6194 22.9333 10.6194C23.8 10.6194 24.5222 9.89722 24.5222 9.06667C24.5222 8.2 23.8 7.51389 22.9333 7.51389C22.1028 7.51389 21.4167 8.2 21.4167 9.06667Z" fill="#777777"/>
</svg>
