<svg width="110" height="110" viewBox="0 0 110 110" fill="none" xmlns="http://www.w3.org/2000/svg">
<g clip-path="url(#clip0_3618_5276)">
<path d="M71.5986 24L82 33.9277V96H28V24H71.5986Z" stroke="#222222" stroke-width="2"/>
<path d="M71 24V35H82" stroke="#222222" stroke-width="2"/>
<path d="M44 61.7037L51.814 70L65 56" stroke="#222222" stroke-width="2"/>
<path d="M99.4548 36.24C99.5859 35.4321 99.0374 34.6709 98.2297 34.5398C97.422 34.4087 96.661 34.9573 96.5299 35.7651C96.3988 36.5729 96.9473 37.3341 97.7549 37.4653C98.5626 37.5964 99.3237 37.0478 99.4548 36.24Z" fill="#222222"/>
<path d="M93.3794 27L91.8751 27.9478L95.034 32.9631L96.5383 32.0152L93.3794 27Z" fill="#222222"/>
<path d="M100.964 39.0369L99.4593 39.9847L102.618 45L104.122 44.0522L100.964 39.0369Z" fill="#222222"/>
<path d="M94.0154 37.4618L89 40.6195L89.9471 42.1244L94.9625 38.9667L94.0154 37.4618Z" fill="#222222"/>
<path d="M106.052 29.8781L101.038 33.0376L101.986 34.5422L107 31.3827L106.052 29.8781Z" fill="#222222"/>
<path d="M93.9529 35.968C93.8877 35.968 93.8225 35.962 93.7573 35.9442L92.0209 35.553C91.5409 35.4463 91.2446 34.9662 91.3512 34.492C91.4579 34.0119 91.9379 33.7096 92.412 33.8222L94.1485 34.2134C94.6285 34.3201 94.9248 34.8002 94.8181 35.2744C94.7233 35.6894 94.3559 35.968 93.9529 35.968Z" fill="#222222"/>
<path d="M103.779 38.2026C103.714 38.2026 103.648 38.1967 103.583 38.1789L101.847 37.7877C101.367 37.681 101.07 37.2009 101.177 36.7267C101.284 36.2465 101.758 35.9442 102.238 36.0569L103.974 36.4481C104.454 36.5548 104.751 37.0349 104.644 37.5091C104.549 37.924 104.182 38.2026 103.779 38.2026Z" fill="#222222"/>
<path d="M96.6849 42.6719C96.6197 42.6719 96.5545 42.666 96.4894 42.6482C96.0093 42.5415 95.713 42.0614 95.8197 41.5872L96.2108 39.8505C96.3175 39.3703 96.7975 39.074 97.2716 39.1807C97.7517 39.2873 98.048 39.7675 97.9413 40.2476L97.5502 41.9844C97.4553 42.3993 97.0879 42.6779 96.6849 42.6779V42.6719Z" fill="#222222"/>
<path d="M98.9132 32.8442C98.848 32.8442 98.7828 32.8382 98.7177 32.8205C98.2376 32.7138 97.9413 32.2336 98.048 31.7594L98.4391 30.0286C98.5458 29.5485 99.0258 29.2521 99.4999 29.3588C99.98 29.4655 100.276 29.9456 100.17 30.4198L99.7785 32.1507C99.6836 32.5656 99.3162 32.8442 98.9132 32.8442Z" fill="#222222"/>
<path d="M14.3268 16.0768C14.9746 16.7246 16.025 16.7246 16.6729 16.0768C17.3207 15.4289 17.3207 14.3786 16.6729 13.7307C16.025 13.0829 14.9746 13.0829 14.3268 13.7307C13.6789 14.3786 13.6789 15.4289 14.3268 16.0768Z" fill="#222222"/>
<path d="M21.0447 0.648223L19.1464 0.0486101L16.3483 8.90717L18.2465 9.50678L21.0447 0.648223Z" fill="#222222"/>
<path d="M14.6498 20.8959L12.7516 20.2963L9.95338 29.1549L11.8516 29.7545L14.6498 20.8959Z" fill="#222222"/>
<path d="M10.1048 12.1516L1.24625 9.35336L0.646633 11.2516L9.50519 14.0498L10.1048 12.1516Z" fill="#222222"/>
<path d="M30.3525 18.5464L21.494 15.7482L20.8943 17.6465L29.7529 20.4447L30.3525 18.5464Z" fill="#222222"/>
<path d="M12.0417 10.3101C11.9713 10.2397 11.9103 10.16 11.8634 10.0661L10.0288 6.53294C9.7754 6.04496 9.96309 5.44436 10.4511 5.19099C10.9391 4.93761 11.535 5.12999 11.793 5.61328L13.6277 9.14647C13.881 9.63446 13.6934 10.2351 13.2054 10.4884C12.8112 10.6949 12.342 10.6104 12.0417 10.3101Z" fill="#222222"/>
<path d="M19.3849 24.4382C19.3146 24.3678 19.2536 24.2881 19.2066 24.1942L17.372 20.661C17.1186 20.173 17.3063 19.5724 17.7943 19.3191C18.2823 19.0657 18.8829 19.2534 19.1363 19.7414L20.9709 23.2746C21.2243 23.7625 21.0366 24.3631 20.5486 24.6165C20.1545 24.823 19.6852 24.7385 19.3849 24.4382Z" fill="#222222"/>
<path d="M5.96537 20.1965C5.89499 20.1261 5.83399 20.0464 5.78707 19.9525C5.53369 19.4645 5.72138 18.8639 6.20936 18.6106L9.74256 16.7759C10.2305 16.5225 10.8311 16.7102 11.0845 17.1982C11.3379 17.6862 11.1502 18.2868 10.6622 18.5402L7.12903 20.3748C6.73489 20.5813 6.26567 20.4968 5.96537 20.1965Z" fill="#222222"/>
<path d="M20.0935 12.8533C20.0231 12.7829 19.9621 12.7031 19.9152 12.6093C19.6618 12.1213 19.8495 11.5207 20.3374 11.2673L23.8706 9.4327C24.3586 9.17932 24.9592 9.36701 25.2126 9.85499C25.466 10.343 25.2783 10.9436 24.7903 11.1969L21.2571 13.0316C20.863 13.238 20.3938 13.1536 20.0935 12.8533Z" fill="#222222"/>
<path d="M94.1044 59.1042C93.8698 59.1891 93.6101 59.1383 93.4208 58.9752L92.0965 57.8091C91.5004 57.2817 90.7683 56.9387 89.9816 56.8181L88.238 56.5467C87.993 56.5099 87.7863 56.3386 87.7014 56.104C87.6165 55.8693 87.6673 55.6097 87.8304 55.4204L88.9965 54.0961C89.5239 53.4999 89.8669 52.7678 89.9875 51.9811L90.2589 50.2375C90.2957 49.9926 90.467 49.7859 90.7016 49.7009C90.9363 49.616 91.1959 49.6668 91.3852 49.8299L92.7095 50.9961C93.3057 51.5234 94.0378 51.8665 94.8245 51.9871L96.5681 52.2584C96.813 52.2952 97.0197 52.4665 97.1046 52.7012C97.1896 52.9358 97.1388 53.1955 96.9757 53.3848L95.8095 54.7091C95.2822 55.3052 94.9391 56.0373 94.8185 56.824L94.5472 58.5676C94.5103 58.8125 94.3391 59.0193 94.1044 59.1042ZM89.6768 55.3891L90.1926 55.4678C91.2359 55.6307 92.2105 56.0838 93.0048 56.7855L93.3954 57.1315L93.4741 56.6157C93.6355 55.5682 94.0901 54.5978 94.7918 53.8035L95.1378 53.4129L94.622 53.3342C93.5787 53.1713 92.6041 52.7182 91.8113 52.0208L91.4207 51.6748L91.342 52.1906C91.1807 53.2381 90.726 54.2085 90.0243 55.0028L89.6783 55.3934L89.6768 55.3891Z" fill="#222222"/>
<path d="M14 37L14.5885 38.0766C14.8947 38.6411 15.3589 39.1053 15.9234 39.4115L17 40L15.9234 40.5885C15.3589 40.8947 14.8947 41.3589 14.5885 41.9234L14 43L13.4115 41.9234C13.1053 41.3589 12.6411 40.8947 12.0766 40.5885L11 40L12.0766 39.4115C12.6411 39.1053 13.1053 38.6411 13.4115 38.0766L14 37Z" fill="#222222"/>
</g>
<defs>
<clipPath id="clip0_3618_5276">
<rect width="110" height="110" fill="white"/>
</clipPath>
</defs>
</svg>
