<svg width="32" height="32" viewBox="0 0 32 32" fill="none" xmlns="http://www.w3.org/2000/svg">
<path d="M16.0645 4.84961C16.1063 4.84969 16.1686 4.85027 16.248 4.85059C16.4069 4.85122 16.6373 4.85293 16.9248 4.85547C17.5002 4.86054 18.3053 4.87033 19.2236 4.89062C21.0521 4.93104 23.3566 5.01214 25.1982 5.17676C25.722 5.20923 27.0878 5.2684 28.3369 6.4873L28.5889 6.75195L28.5928 6.75586L28.6953 6.87891C29.1919 7.50926 29.4682 8.36764 29.6201 8.93848C29.7089 9.27233 29.7712 9.57442 29.8115 9.79297C29.8318 9.90277 29.8473 9.99325 29.8574 10.0576C29.8625 10.0898 29.8664 10.1161 29.8691 10.1348C29.8705 10.144 29.8713 10.1516 29.8721 10.1572C29.8724 10.1599 29.8728 10.1622 29.873 10.1641V10.167L29.874 10.168C29.874 10.1682 29.8737 10.1683 28.7344 10.3223L29.874 10.1689L29.876 10.1904H29.877V10.1982C29.8775 10.2033 29.8788 10.2113 29.8799 10.2207C29.882 10.2395 29.8849 10.2668 29.8887 10.3018C29.8963 10.3719 29.9071 10.4738 29.9199 10.6025C29.9455 10.86 29.9797 11.2262 30.0137 11.665C30.0814 12.5403 30.1504 13.7178 30.1504 14.9033V17.0645C30.1504 18.2659 30.0815 19.4435 30.0137 20.3154C29.9797 20.7525 29.9456 21.1159 29.9199 21.3711C29.9071 21.4987 29.8963 21.5995 29.8887 21.6689C29.8849 21.7035 29.882 21.7304 29.8799 21.749C29.8789 21.7581 29.8775 21.7655 29.877 21.7705C29.8767 21.773 29.8771 21.7759 29.877 21.7773L29.876 21.7783V21.7793L29.874 21.7969V21.7988L29.873 21.8008C29.8728 21.8027 29.8725 21.8057 29.8721 21.8086C29.8713 21.8143 29.8705 21.8219 29.8691 21.8311C29.8664 21.8499 29.8624 21.8758 29.8574 21.9082C29.8473 21.9734 29.8327 22.0654 29.8125 22.1768C29.7722 22.3982 29.7098 22.7042 29.6211 23.042C29.4598 23.6564 29.1565 24.604 28.5928 25.2441L28.5889 25.248C27.2533 26.7491 25.668 26.7642 25.2461 26.8184L25.2197 26.8213L25.1924 26.8232C23.3568 26.9711 21.0555 27.0532 19.2266 27.0977C18.3094 27.12 17.5054 27.133 16.9307 27.1406C16.6433 27.1444 16.4126 27.147 16.2539 27.1484C16.1746 27.1492 16.1131 27.1491 16.0713 27.1494C16.0504 27.1496 16.0343 27.1493 16.0234 27.1494C16.0181 27.1494 16.0135 27.1504 16.0107 27.1504H15.9951L15.9834 27.1494H15.9639C15.9509 27.1492 15.9313 27.1488 15.9062 27.1484C15.8558 27.1477 15.7814 27.1471 15.6865 27.1455C15.4966 27.1424 15.2231 27.1372 14.8887 27.1309C14.22 27.1182 13.306 27.0996 12.3271 27.0732C10.3928 27.0212 8.13192 26.9394 7.04102 26.8203L7.00586 26.8164L6.9707 26.8105C6.66163 26.7573 4.75665 26.7603 3.41113 25.248L3.40723 25.2441C2.84346 24.604 2.54022 23.6564 2.37891 23.042C2.29021 22.7042 2.22776 22.3982 2.1875 22.1768C2.16726 22.0654 2.15266 21.9734 2.14258 21.9082C2.13757 21.8758 2.13355 21.8499 2.13086 21.8311C2.12955 21.8219 2.12871 21.8143 2.12793 21.8086C2.12753 21.8057 2.12721 21.8027 2.12695 21.8008L2.12598 21.7988V21.7969L2.12402 21.7793V21.7783L2.12305 21.7773C2.12288 21.7759 2.12334 21.773 2.12305 21.7705C2.12246 21.7655 2.12115 21.7581 2.12012 21.749C2.118 21.7304 2.11512 21.7035 2.11133 21.6689C2.1037 21.5995 2.09291 21.4987 2.08008 21.3711C2.05443 21.1159 2.02032 20.7525 1.98633 20.3154C1.91852 19.4435 1.84961 18.2659 1.84961 17.0645V14.9033C1.84961 13.7178 1.91858 12.5403 1.98633 11.665C2.0203 11.2262 2.05446 10.86 2.08008 10.6025C2.09289 10.4738 2.10372 10.3719 2.11133 10.3018C2.11512 10.2668 2.11801 10.2395 2.12012 10.2207C2.12117 10.2113 2.12246 10.2033 2.12305 10.1982V10.1904H2.12402L2.12598 10.1689L3.26562 10.3223L2.12598 10.168L2.12695 10.167V10.1641C2.12721 10.1622 2.12755 10.1599 2.12793 10.1572C2.12872 10.1516 2.12951 10.144 2.13086 10.1348C2.13358 10.1161 2.13751 10.0898 2.14258 10.0576C2.1527 9.99325 2.16821 9.90277 2.18848 9.79297C2.22883 9.57442 2.29105 9.27233 2.37988 8.93848C2.54193 8.32953 2.8457 7.39346 3.40723 6.75586L3.41113 6.75195L3.66309 6.4873C4.93214 5.24894 6.3216 5.2072 6.82617 5.1748L6.85938 5.17285L15.959 4.85059L15.9795 4.84961H16.0645Z" stroke="#777777" stroke-width="2.3"/>
<path d="M14 20.1919V11.8125L21.1823 16.036L14 20.1919Z" fill="#777777"/>
</svg>
