<svg width="58" height="57" viewBox="0 0 58 57" fill="none" xmlns="http://www.w3.org/2000/svg">
<path d="M50.1653 37.7672C54.2408 33.688 54.2408 27.0742 50.1653 22.995C46.0898 18.9158 39.4821 18.9158 35.4066 22.995C31.3311 27.0742 31.3311 33.688 35.4066 37.7672C39.4821 41.8465 46.0898 41.8465 50.1653 37.7672Z" fill="#F2F2F2" stroke="#444444" stroke-width="2" stroke-linejoin="bevel"/>
<path d="M38.2223 55.8557H11.4506L6.89258 19.9351H42.7803L38.2223 55.8557Z" fill="#F2F2F2" stroke="#444444" stroke-width="2" stroke-linejoin="bevel"/>
<path d="M0 55.8555H49.6784" stroke="#444444" stroke-width="2" stroke-linejoin="bevel"/>
<path d="M29.8059 19.9351V33.2931" stroke="#444444" stroke-width="2" stroke-linejoin="bevel"/>
<path d="M26.3487 45.5777C25.3423 45.5777 24.5255 44.7602 24.5255 43.7528V36.8329C24.5255 36.3074 24.7516 35.8037 25.1527 35.4606L28.6095 32.4387C28.9522 32.1394 29.3825 31.9861 29.8055 31.9861C30.2285 31.9861 30.6587 32.1394 31.0015 32.4387L34.4583 35.4606C34.8521 35.8037 35.0854 36.3074 35.0854 36.8329V43.7528C35.0854 44.7602 34.2687 45.5777 33.2623 45.5777H26.3487Z" fill="#444444"/>
<path d="M29.8043 33.8035L33.2611 36.8255V43.7454H26.3476V36.8255L29.8043 33.8035ZM29.8043 30.1538C28.9511 30.1538 28.0905 30.4531 27.405 31.0516L23.9482 34.0736C23.1533 34.7671 22.7012 35.7671 22.7012 36.8255V43.7454C22.7012 45.7601 24.3348 47.3952 26.3476 47.3952H33.2611C35.2739 47.3952 36.9075 45.7601 36.9075 43.7454V36.8255C36.9075 35.7744 36.4553 34.7671 35.6604 34.0736L32.2037 31.0516C31.5181 30.4531 30.6649 30.1538 29.8043 30.1538Z" fill="#F2F2F2"/>
<g style="mix-blend-mode:darken">
<path d="M35.4584 12.7522V0" stroke="#444444" stroke-width="2" stroke-linejoin="bevel"/>
</g>
<g style="mix-blend-mode:darken">
<path d="M26.3499 12.7522V0" stroke="#444444" stroke-width="2" stroke-linejoin="bevel"/>
</g>
<g style="mix-blend-mode:darken">
<path d="M17.2478 12.7522V0" stroke="#444444" stroke-width="2" stroke-linejoin="bevel"/>
</g>
</svg>
