<svg width="52" height="56" viewBox="0 0 52 56" fill="none" xmlns="http://www.w3.org/2000/svg">
<path d="M26 21.4186C31.4001 21.4186 35.7777 17.1107 35.7777 11.7967C35.7777 6.48266 31.4001 2.1748 26 2.1748C20.6 2.1748 16.2224 6.48266 16.2224 11.7967C16.2224 17.1107 20.6 21.4186 26 21.4186Z" fill="#F7EDE8" stroke="#81503B" stroke-width="2" stroke-linejoin="bevel"/>
<path d="M2.1571 55.5302L5.87013 39.1921C7.01056 34.1637 11.5546 30.5881 16.7882 30.5881H35.203C40.4366 30.5881 44.9806 34.1637 46.1211 39.1921L49.8341 55.5302" fill="#F7EDE8"/>
<path d="M2.1571 55.5302L5.87013 39.1921C7.01056 34.1637 11.5546 30.5881 16.7882 30.5881H35.203C40.4366 30.5881 44.9806 34.1637 46.1211 39.1921L49.8341 55.5302" stroke="#81503B" stroke-width="2" stroke-linejoin="bevel"/>
</svg>
