<svg width="22" height="20" viewBox="0 0 22 20" fill="none" xmlns="http://www.w3.org/2000/svg">
<g clip-path="url(#clip0_3643_6373)">
<path d="M18.1836 8.00982C18.2711 8.00174 18.3586 7.98828 18.4488 7.98828C19.7721 7.98828 20.8439 8.86878 20.8439 9.95392V11.7445C20.8439 12.8297 19.7721 13.7102 18.4488 13.7102C18.3586 13.7102 18.1836 13.6886 18.1836 13.6886" stroke="#222222" stroke-width="2" stroke-linecap="round" stroke-linejoin="round"/>
<path d="M3.81847 8.00982C3.73098 8.00174 3.64349 7.98828 3.55326 7.98828C2.22996 7.98828 1.1582 8.86878 1.1582 9.95392V11.7445C1.1582 12.8297 2.22996 13.7102 3.55326 13.7102C3.64349 13.7102 3.73098 13.6967 3.81847 13.6886L4.22858 13.6321" stroke="#222222" stroke-width="2" stroke-linecap="round" stroke-linejoin="round"/>
<path d="M14.4595 17.6368C14.4595 18.3611 13.8634 18.9481 13.1307 18.9481H9.40689C8.67142 18.9481 8.07812 18.3611 8.07812 17.6368C8.07812 16.9124 8.67416 16.3281 9.40689 16.3281H13.1307C13.8662 16.3281 14.4595 16.9151 14.4595 17.6368Z" stroke="#222222" stroke-width="2" stroke-linecap="round" stroke-linejoin="round"/>
<path d="M8.38623 16.8013C5.80526 16.4405 3.82031 14.254 3.82031 11.6125V6.4157C3.82031 3.52109 6.2017 1.17578 9.14084 1.17578H12.8647C15.8038 1.17578 18.1852 3.52109 18.1852 6.4157V13.7074" stroke="#222222" stroke-width="2" stroke-linecap="round" stroke-linejoin="round"/>
</g>
<defs>
<clipPath id="clip0_3643_6373">
<rect width="22" height="20" fill="white"/>
</clipPath>
</defs>
</svg>
