<svg width="24" height="32" viewBox="0 0 24 32" fill="none" xmlns="http://www.w3.org/2000/svg">
<g clip-path="url(#clip0_804_3976)">
<path d="M9.80876 12.74V18.1107C8.79582 16.9427 7.78289 15.7798 6.76995 14.6118C6.14386 13.8926 5.56867 13.1174 4.53029 13.046C2.86581 12.9287 1.60855 14.6118 2.18882 16.1776C2.37207 16.6724 2.72838 17.1314 3.00834 17.57C3.57334 18.4626 4.13326 19.3552 4.69826 20.2478C5.97589 22.2726 7.24842 24.2924 8.52604 26.3173C8.85181 26.8324 9.14704 27.4087 9.53898 27.878C10.1345 28.592 11.0049 28.7553 11.0508 29.8569C11.0711 30.4027 11.0508 30.9586 11.0508 31.5044C11.0508 32.1572 12.0586 32.1572 12.0586 31.5044C12.0586 30.4945 12.2317 29.3061 11.6412 28.4186C11.1933 27.7454 10.4298 27.4291 9.992 26.7355C8.96889 25.1187 7.95086 23.5018 6.92774 21.8799C5.82827 20.1407 4.7288 18.3963 3.62933 16.6571C3.24248 16.045 2.78946 15.4177 3.24248 14.673C3.78713 13.7702 4.87642 13.9539 5.48214 14.6526C5.61449 14.8056 5.74683 14.9535 5.87408 15.1065C7.21788 16.652 8.55659 18.1923 9.90038 19.7377C9.91056 19.753 9.92583 19.7683 9.9411 19.7836C9.94619 19.7938 9.95637 19.7989 9.96146 19.8091C10.1447 20.0233 10.3839 20.008 10.5621 19.8856C10.7148 19.8142 10.8268 19.6714 10.8268 19.4521V3.55921C10.8268 3.4266 10.8166 3.28889 10.8268 3.15117C10.9439 1.82507 12.7661 1.82507 12.8832 3.15117C12.9341 3.73262 12.8832 4.34467 12.8832 4.93122V11.0058C12.8628 11.3679 12.8832 11.7403 12.8832 12.0973V15.7186C12.8832 16.3714 13.8911 16.3714 13.8911 15.7186V10.9905C13.9572 10.5723 14.1099 10.1999 14.4408 9.99083C15.2857 9.45019 16.2529 10.0826 16.3241 11.016C16.3496 11.3679 16.3241 11.7301 16.3241 12.082V15.7135C16.3241 16.3663 17.332 16.3663 17.332 15.7135V12.5206C17.3574 11.7454 17.5356 10.9548 18.518 10.965C19.8414 10.9803 19.704 12.3829 19.704 13.301V13.5713C19.6073 14.2701 19.704 15.0504 19.704 15.7186C19.704 16.3867 20.7169 16.3714 20.7169 15.7186V13.8059C20.8187 12.3523 22.8141 12.2809 22.9311 13.76C23.0126 14.7852 22.9311 15.8461 22.9311 16.8764V21.63C22.9311 23.6752 22.8039 25.6185 21.7859 27.4648C21.4855 28.0106 20.9613 28.5818 20.9358 29.2194C20.9053 29.9845 20.9358 30.7546 20.9358 31.5146C20.9358 32.1674 21.9436 32.1674 21.9436 31.5146C21.9436 30.8005 22.0913 29.9232 21.9436 29.2245C22.0404 29.1276 22.1473 28.8471 22.2032 28.7502C22.4781 28.2758 22.7581 27.8066 22.9871 27.3118C23.9034 25.3074 23.939 23.2672 23.939 21.1199V16.5908C23.939 15.1524 24.392 12.8471 22.9413 11.9494C22.2236 11.5057 21.3328 11.5618 20.666 11.9851C20.4879 10.8834 19.8058 9.94493 18.518 9.94493C17.9835 9.94493 17.556 10.1081 17.22 10.3785C17.1538 10.1336 17.052 9.89902 16.8841 9.6746C16.3598 8.97075 15.4334 8.62902 14.5782 8.84324C14.3288 8.90444 14.0997 9.01155 13.8911 9.14926V4.98732C13.8911 4.28857 13.9776 3.52351 13.8605 2.82985C13.5297 0.815185 10.6232 0.514261 9.93601 2.46772C9.72732 3.06447 9.81385 3.79893 9.81385 4.42118V12.7451L9.80876 12.74Z" fill="black"/>
<path d="M0.137434 3.7024C0.137434 3.7024 0.152704 3.7228 0.157794 3.7279C0.157794 3.733 0.162884 3.7381 0.167975 3.7432C0.890774 4.69188 1.60848 5.63546 2.33128 6.58413C2.71813 7.09417 3.59873 6.58923 3.2017 6.07409C2.65196 5.34983 2.09714 4.62557 1.5474 3.90131C3.7667 3.90131 5.99109 3.89621 8.21039 3.89111C8.86193 3.89111 8.86193 2.87613 8.21039 2.88123C5.99109 2.88123 3.77179 2.88633 1.55249 2.89143C2.10223 2.17227 2.65196 1.45312 3.2017 0.733957C3.59873 0.218816 2.71813 -0.286126 2.33128 0.223916L0.137434 3.09035C0.0509014 3.17196 0 3.27906 0 3.39637C0 3.51368 0.0509014 3.62079 0.137434 3.7075V3.7024Z" fill="black"/>
<path d="M15.4283 3.92139C17.6476 3.92139 19.8669 3.91629 22.0862 3.91119C21.5365 4.63035 20.9867 5.34951 20.4319 6.06867C20.0349 6.58381 20.9155 7.08875 21.3023 6.57871C22.0353 5.61983 22.7632 4.66605 23.4962 3.70718C23.5827 3.62557 23.6387 3.51846 23.6336 3.40115C23.6336 3.28384 23.5827 3.17163 23.4962 3.09002C23.4911 3.07982 23.4809 3.06962 23.4758 3.06452C23.4758 3.05942 23.4656 3.05432 23.4656 3.04922C22.7428 2.10054 22.0251 1.15697 21.3023 0.208291C20.9155 -0.30175 20.0349 0.203191 20.4319 0.718332C20.9817 1.44259 21.5365 2.16685 22.0862 2.89111C19.8669 2.89111 17.6425 2.89621 15.4232 2.90131C14.7717 2.90131 14.7717 3.91629 15.4232 3.91119L15.4283 3.92139Z" fill="black"/>
</g>
<defs>
<clipPath id="clip0_804_3976">
<rect width="24" height="32" fill="white"/>
</clipPath>
</defs>
</svg>
