<svg width="19" height="23" viewBox="0 0 19 23" fill="none" xmlns="http://www.w3.org/2000/svg">
<g clip-path="url(#clip0_4233_6982)">
<path d="M2.38768 17.6246C1.85419 17.6246 1.36242 17.3435 1.08823 16.8821C0.751445 16.3077 0.858739 15.5713 1.33858 15.1221L2.69466 13.8571V8.74825C2.69764 4.84325 5.87772 1.41797 9.4989 1.41797C13.1201 1.41797 16.3001 4.84325 16.3001 8.74825V13.8571L17.6562 15.1221C18.1391 15.5713 18.2434 16.3107 17.9066 16.8821C17.6354 17.3405 17.1406 17.6246 16.6071 17.6246H2.38768Z" stroke="#222222" stroke-width="2" stroke-linecap="round" stroke-linejoin="round"/>
<path d="M13.2627 17.7031C13.2627 19.8481 11.5788 21.5837 9.50149 21.5837C7.42416 21.5837 5.74023 19.8451 5.74023 17.7031H13.2657H13.2627Z" stroke="#222222" stroke-width="2" stroke-linecap="round" stroke-linejoin="round"/>
</g>
<defs>
<clipPath id="clip0_4233_6982">
<rect width="19" height="22" fill="white" transform="translate(0 0.5)"/>
</clipPath>
</defs>
</svg>
