<svg width="109" height="39" viewBox="0 0 109 39" fill="none" xmlns="http://www.w3.org/2000/svg">
<path d="M103.333 0.325836C101.946 4.77715 99.8651 10.2738 97.7992 14.9206C96.8128 12.712 95.8015 10.2676 94.8554 7.78606C95.724 5.74497 96.819 3.32854 98.2241 0.328938H95.3734C95.3734 0.328938 94.0954 4.11023 93.8163 4.94156C93.534 4.11023 92.2591 0.33204 92.2591 0.33204H87.9877C89.731 4.05129 91.009 6.9113 92.0947 9.54487C91.3626 11.3874 90.5902 13.23 89.8395 14.9206C87.6123 10.3731 85.4658 5.14629 83.6728 0.325836H80.0249C83.3192 7.36419 84.9695 11.344 87.7612 19.0648H90.491C90.491 19.0648 92.805 12.895 93.109 12.0854C93.413 12.895 95.724 19.0617 95.724 19.0617H98.4568C101.252 11.344 102.902 7.36109 106.193 0.322734H103.339L103.333 0.325836Z" fill="#864D34"/>
<path d="M79.4008 19.0649V17.1354H70.5912C70.5292 15.7147 70.4548 13.3262 70.4548 9.69072C70.4548 6.05522 70.5292 3.67602 70.5912 2.25842H79.4008V0.325898H66.323C66.323 0.353816 66.5804 3.18591 66.5804 9.68762C66.5804 16.1893 66.326 19.0369 66.323 19.0649H79.4008Z" fill="#864D34"/>
<path d="M78.8611 8.53679H70.2345L71.8972 10.581H78.8611V8.53679Z" fill="#864D34"/>
<path d="M63.4017 19.0649C63.4017 19.0369 63.1411 16.1924 63.1411 9.68762C63.1411 3.18281 63.3986 0.350714 63.4017 0.325898H59.0124C59.0155 0.350714 59.2729 3.18591 59.2729 9.68762C59.2729 16.1893 59.0186 19.0369 59.0186 19.0649H63.4048H63.4017Z" fill="#864D34"/>
<path d="M55.541 0.325898C54.1545 4.78342 52.0699 10.2801 50.0009 14.9206C47.935 10.2708 45.8474 4.77411 44.4639 0.325898H39.7179C42.6307 6.40885 45.0967 12.4732 47.4449 19.0649H50.6586L50.702 18.9439C53.4968 11.2169 55.1006 7.35805 58.3948 0.325898H55.541Z" fill="#864D34"/>
<path d="M26.4233 9.31529L33.8774 0.400254H28.5761L22.6048 8.09002H22.549V0.400254H18.1659V19.2633H18.4048C20.3125 19.2633 22.5459 18.4227 22.5459 15.3548V10.9966H22.6545L28.7374 19.0524H34.2806L26.4233 9.31529Z" fill="#E1002B"/>
<path d="M10.3271 7.66805C8.742 6.93289 7.39575 6.33111 7.39575 5.12134C7.39575 4.22487 8.14952 3.55175 9.65708 3.55175C10.1937 3.55175 10.6559 3.59828 11.1119 3.70685C11.3539 3.73166 11.5958 3.75648 11.8378 3.75648C13.1034 3.75648 13.854 3.02131 14.341 1.5758L14.5551 0.974016C14.341 0.921283 12.2162 0 9.43994 0C5.02585 0.00620393 2.71488 2.76385 2.71488 5.62076C2.71488 7.06317 3.17087 8.11473 3.89983 8.92745C4.83973 9.97591 6.16116 10.6863 7.39575 11.257C9.2259 12.1256 10.8699 12.7832 10.8699 14.0674C10.8699 15.2244 9.65708 15.8789 8.04716 15.8789C5.81374 15.8789 3.87502 14.6196 3.63306 14.4893L1.7998 17.796C2.12241 17.979 4.49231 19.4493 8.33874 19.4493C12.455 19.4493 15.5477 17.1414 15.5477 13.6021C15.5477 10.0628 12.6722 8.77235 10.3271 7.67115V7.66805Z" fill="#E1002B"/>
<path d="M99.3001 38.8182H101.109V35.8317L102.713 34.1841L106.23 38.8182H108.434L103.948 32.9492L108.243 28.5231H105.991L101.109 33.7009V28.5231H99.3001V38.8182ZM90.4781 33.627V30.1707H93.1123C94.4646 30.1707 95.2431 30.758 95.2431 31.8754V31.9056C95.2431 32.966 94.421 33.627 93.1257 33.627H90.4781ZM88.6694 38.8182H90.4781V35.231H92.7432L95.2734 38.8182H97.421L94.6425 34.9223C96.0686 34.5096 97.0854 33.4962 97.0854 31.8049V31.7747C97.0854 30.8788 96.7767 30.1271 96.2331 29.5533C95.572 28.9056 94.5552 28.5231 93.2633 28.5231H88.6728V38.8182H88.6694ZM80.1931 34.7277L81.9582 30.6103L83.7367 34.7277H80.1931ZM76.6193 38.8182H78.4717L79.532 36.3317H84.4011L85.4447 38.8182H87.3574L82.8273 28.4493H81.1495L76.6193 38.8182ZM70.7436 33.8754V30.1707H72.8476C74.1999 30.1707 75.069 30.7882 75.069 32.0096V32.0398C75.069 33.1136 74.2167 33.8787 72.8476 33.8787H70.7436V33.8754ZM68.9349 38.8182H70.7436V35.5095H72.7872C75.0657 35.5095 76.9046 34.2881 76.9046 31.9962V31.966C76.9046 29.8922 75.4046 28.5231 72.9919 28.5231H68.9316V38.8182H68.9349ZM54.6701 38.8182H62.378V37.2008H56.4788V34.4492H61.6398V32.815H56.4788V30.1372H62.3042V28.5231H54.6701V38.8182ZM47.7575 38.9793C50.4487 38.9793 52.1836 37.4357 52.1836 34.3619V28.5231H50.3749V34.4492C50.3749 36.3451 49.3883 37.3015 47.7877 37.3015C46.187 37.3015 45.1837 36.3015 45.1837 34.3753V28.5231H43.375V34.4492C43.375 37.4357 45.0965 38.9793 47.7575 38.9793ZM31.9155 38.8182H33.694V31.4928L39.3717 38.8182H40.8885V28.5231H39.11V35.6404L33.5933 28.5231H31.9155V38.8182ZM22.06 38.8182H29.7679V37.2008H23.8687V34.4492H29.033V32.815H23.8687V30.1372H29.6941V28.5231H22.06V38.8182ZM14.4125 38.892H16.0299L20.2983 28.5231H18.3419L15.2547 36.4357L12.1474 28.5231H10.1475L14.4125 38.892ZM3.57376 34.7277L5.33882 30.6103L7.11731 34.7277H3.57376ZM0 38.8182H1.85231L2.9127 36.3317H7.78173L8.82533 38.8182H10.7381L6.20794 28.4493H4.53012L0 38.8182Z" fill="#999999"/>
</svg>
