<svg width="129" height="26" viewBox="0 0 129 26" fill="none" xmlns="http://www.w3.org/2000/svg">
<rect width="129" height="26" fill="#F5F5F5"/>
<g id="B&#236;&#149;&#136;">
<path d="M-9899 -4984C-9899 -4985.1 -9898.1 -4986 -9897 -4986H6525C6526.1 -4986 6527 -4985.1 6527 -4984V11184C6527 11185.1 6526.11 11186 6525 11186H-9897C-9898.1 11186 -9899 11185.1 -9899 11184V-4984Z" fill="#646464"/>
<path d="M-9897 -4986V-4985H6525V-4986V-4987H-9897V-4986ZM6527 -4984H6526V11184H6527H6528V-4984H6527ZM6525 11186V11185H-9897V11186V11187H6525V11186ZM-9899 11184H-9898V-4984H-9899H-9900V11184H-9899ZM-9897 11186V11185C-9897.55 11185 -9898 11184.6 -9898 11184H-9899H-9900C-9900 11185.7 -9898.66 11187 -9897 11187V11186ZM6527 11184H6526C6526 11184.6 6525.55 11185 6525 11185V11186V11187C6526.66 11187 6528 11185.7 6528 11184H6527ZM6525 -4986V-4985C6525.55 -4985 6526 -4984.55 6526 -4984H6527H6528C6528 -4985.66 6526.66 -4987 6525 -4987V-4986ZM-9897 -4986V-4987C-9898.66 -4987 -9900 -4985.66 -9900 -4984H-9899H-9898C-9898 -4984.55 -9897.55 -4985 -9897 -4985V-4986Z" fill="black" fill-opacity="0.1"/>
<g id="PC_Main" clip-path="url(#clip0_1236_4024)">
<rect width="1920" height="4768" transform="translate(-1711 -4609)" fill="white"/>
<g id="Footer">
<rect id="bg" x="-1711" y="-141" width="1920" height="300" fill="black"/>
<g id="logo">
<path d="M76.122 24.5408C76.122 24.5063 75.8 20.9913 75.8 12.9533C75.8 4.91521 76.1182 1.41556 76.122 1.3849H70.6982C70.702 1.41556 71.0201 4.91904 71.0201 12.9533C71.0201 20.9875 70.7058 24.5063 70.7058 24.5408H76.1259H76.122Z" fill="white" fill-opacity="0.3"/>
<path d="M66.4089 1.3849C64.6955 6.8931 62.1196 13.6854 59.5629 19.4198C57.0101 13.6739 54.4304 6.8816 52.7208 1.3849H46.8561C50.4554 8.90166 53.5028 16.3954 56.4044 24.5408H60.3756L60.4292 24.3913C63.8829 14.843 65.8646 10.0746 69.9354 1.3849H66.4089Z" fill="white" fill-opacity="0.3"/>
<path d="M95.8933 24.5408V22.1566H85.0072C84.9306 20.401 84.8386 17.4495 84.8386 12.9571C84.8386 8.46468 84.9306 5.52467 85.0072 3.77294H95.8933V1.3849H79.7328C79.7328 1.4194 80.051 4.91904 80.051 12.9533C80.051 20.9875 79.7367 24.5063 79.7328 24.5408H95.8933Z" fill="white" fill-opacity="0.3"/>
<path d="M95.2263 11.5312H84.5664L86.621 14.0572H95.2263V11.5312Z" fill="white" fill-opacity="0.3"/>
<path d="M125.466 1.3849C123.752 6.88543 121.18 13.6777 118.628 19.4198C117.409 16.6906 116.159 13.6701 114.99 10.6036C116.063 8.08137 117.416 5.09536 119.153 1.38873H115.63C115.63 1.38873 114.051 6.06131 113.706 7.08859C113.357 6.06131 111.782 1.39257 111.782 1.39257H106.503C108.658 5.98848 110.237 9.52262 111.578 12.7769C110.674 15.0538 109.719 17.3307 108.792 19.4198C106.04 13.8004 103.387 7.34158 101.172 1.3849H96.6637C100.735 10.0823 102.774 15.0002 106.224 24.5408H109.597C109.597 24.5408 112.456 16.9167 112.832 15.9163C113.208 16.9167 116.063 24.537 116.063 24.537H119.44C122.894 15.0002 124.933 10.0784 129 1.38107H125.474L125.466 1.3849Z" fill="white" fill-opacity="0.3"/>
<path d="M10.5373 10.4579C8.57853 9.54946 6.91496 8.80583 6.91496 7.31091C6.91496 6.20314 7.84641 5.37135 9.70931 5.37135C10.3724 5.37135 10.9436 5.42885 11.507 5.56301C11.806 5.59367 12.105 5.62434 12.404 5.62434C13.9679 5.62434 14.8955 4.71589 15.4973 2.92965L15.7618 2.18602C15.4973 2.12086 12.8716 0.982422 9.44099 0.982422C3.98645 0.990088 1.13077 4.39774 1.13077 7.92804C1.13077 9.71045 1.69424 11.0099 2.59503 12.0142C3.75646 13.3098 5.38937 14.1875 6.91496 14.8928C9.1765 15.9661 11.2081 16.7787 11.2081 18.3656C11.2081 19.7954 9.70931 20.6042 7.71991 20.6042C4.96006 20.6042 2.56436 19.0479 2.26538 18.8869L0 22.9731C0.398645 23.1992 3.32715 25.0161 8.08023 25.0161C13.1668 25.0161 16.9884 22.1643 16.9884 17.7907C16.9884 13.4171 13.4351 11.8225 10.5373 10.4617V10.4579Z" fill="white" fill-opacity="0.3"/>
<path d="M30.4273 12.4933L39.6383 1.47689H33.0875L25.7088 10.9792H25.6398V1.47689H20.2236V24.7861H20.5187C22.8761 24.7861 25.6359 23.7473 25.6359 19.9564V14.5708H25.7701L33.2869 24.5255H40.1367L30.4273 12.4933Z" fill="white" fill-opacity="0.3"/>
</g>
</g>
</g>
</g>
<defs>
<clipPath id="clip0_1236_4024">
<rect width="1920" height="4768" fill="white" transform="translate(-1711 -4609)"/>
</clipPath>
</defs>
</svg>
