<svg width="48" height="48" viewBox="0 0 48 48" fill="none" xmlns="http://www.w3.org/2000/svg">
<g clip-path="url(#clip0_3976_6460)">
<path d="M33.1315 9.17969V20.5481H15V9.17969" stroke="white" stroke-width="2" stroke-linecap="round" stroke-linejoin="round"/>
<path d="M25.334 11.8789V18.1895H22.8008V11.8789H25.334Z" fill="white" stroke="white" stroke-width="2"/>
<path d="M11.5508 32.2604C11.9376 31.5472 14.0711 28.4648 17.7034 28.4648H29.3438C31.7553 28.5011 33.7558 31.1181 34.0036 33.6021" stroke="white" stroke-width="2" stroke-linecap="round" stroke-linejoin="round"/>
<path d="M21.9703 36.0446H28.4856C29.7306 36.0446 30.9393 35.6638 31.9608 34.9627L40.1743 29.2876C41.8545 28.1272 44.2539 28.7618 45.372 30.5024C46.4961 32.243 46.1395 34.7814 44.4533 35.9418L34.8739 43.9136C33.9008 44.5845 32.7706 44.9592 31.6042 44.9894H11.5508" stroke="white" stroke-width="2" stroke-linecap="round" stroke-linejoin="round"/>
<path d="M11.0238 28.0547H2.5625V46.1861H11.0238V28.0547Z" stroke="white" stroke-width="2" stroke-linecap="round" stroke-linejoin="round"/>
<path d="M24.0664 1.8125L35.5497 10.3887" stroke="white" stroke-width="2" stroke-linecap="round" stroke-linejoin="round"/>
<path d="M12.584 10.3887L24.0672 1.8125" stroke="white" stroke-width="2" stroke-linecap="round" stroke-linejoin="round"/>
</g>
<defs>
<clipPath id="clip0_3976_6460">
<rect width="47.0874" height="48" fill="white" transform="translate(0.75)"/>
</clipPath>
</defs>
</svg>
