<svg width="63" height="58" viewBox="0 0 63 58" fill="none" xmlns="http://www.w3.org/2000/svg">
<path d="M52.7188 22.8613C52.9772 22.8372 53.2357 22.7969 53.5022 22.7969C57.4114 22.7969 60.5776 25.431 60.5776 28.6774V34.0344C60.5776 37.2808 57.4114 39.9149 53.5022 39.9149C53.2357 39.9149 52.7188 39.8505 52.7188 39.8505" stroke="#222222" stroke-width="2" stroke-linecap="round" stroke-linejoin="round"/>
<path d="M10.2827 22.8613C10.0242 22.8372 9.76575 22.7969 9.49921 22.7969C5.58998 22.7969 2.42383 25.431 2.42383 28.6774V34.0344C2.42383 37.2808 5.58998 39.9149 9.49921 39.9149C9.76575 39.9149 10.0242 39.8747 10.2827 39.8505L11.4942 39.6813" stroke="#222222" stroke-width="2" stroke-linecap="round" stroke-linejoin="round"/>
<path d="M41.7168 51.6611C41.7168 53.828 39.956 55.5841 37.7914 55.5841H26.7906C24.6179 55.5841 22.8652 53.828 22.8652 51.6611C22.8652 49.4941 24.626 47.7461 26.7906 47.7461H37.7914C39.9641 47.7461 41.7168 49.5022 41.7168 51.6611Z" stroke="#222222" stroke-width="2" stroke-linecap="round" stroke-linejoin="round"/>
<path d="M23.7697 49.1565C16.1451 48.0771 10.2812 41.536 10.2812 33.6335V18.0863C10.2812 9.42655 17.3162 2.41016 25.9989 2.41016H36.9997C45.6824 2.41016 52.7174 9.42655 52.7174 18.0863V39.9007" stroke="#222222" stroke-width="2" stroke-linecap="round" stroke-linejoin="round"/>
</svg>
