<svg width="32" height="35" viewBox="0 0 32 35" fill="none" xmlns="http://www.w3.org/2000/svg">
<g clip-path="url(#clip0_5397_5122)">
<path d="M14.2317 21.0699C12.1056 20.6828 7.70698 17.2941 7.22427 13.8949L5.54834 0.53125H26.1585L24.488 13.8949C24.0053 17.2941 19.6121 20.6828 17.4914 21.0699" stroke="black" stroke-width="2" stroke-linecap="round" stroke-linejoin="round"/>
<path d="M11.7535 23.8633H19.9541C20.4206 23.8633 20.8382 24.1549 20.9846 24.5898L21.8199 31.8178H9.8877L10.723 24.5898C10.8694 24.1549 11.287 23.8633 11.7535 23.8633Z" stroke="black" stroke-width="2" stroke-linecap="round" stroke-linejoin="round"/>
<path d="M8.53163 31.8164H23.1757L23.7181 34.4679H7.98926L8.53163 31.8164Z" stroke="black" stroke-width="2" stroke-linecap="round" stroke-linejoin="round"/>
<path d="M7.5174 15.7435C3.5418 14.8526 0.54248 10.8965 0.54248 6.15563V4.24124C0.54248 3.94957 0.786548 3.71094 1.08485 3.71094H5.96621" stroke="black" stroke-width="2" stroke-linecap="round" stroke-linejoin="round"/>
<path d="M24.4829 15.7435C28.4585 14.8526 31.4578 10.8965 31.4578 6.15563V4.24124C31.4578 3.94957 31.2138 3.71094 30.9155 3.71094H26.0341" stroke="black" stroke-width="2" stroke-linecap="round" stroke-linejoin="round"/>
<path d="M14.2266 21.2109V23.8625" stroke="black" stroke-width="2" stroke-linecap="round" stroke-linejoin="round"/>
<path d="M17.4805 21.2109V23.8625" stroke="black" stroke-width="2" stroke-linecap="round" stroke-linejoin="round"/>
</g>
<defs>
<clipPath id="clip0_5397_5122">
<rect width="32" height="35" fill="white"/>
</clipPath>
</defs>
</svg>
