<svg width="71" height="82" viewBox="0 0 71 82" fill="none" xmlns="http://www.w3.org/2000/svg">
<rect x="20.5" width="30" height="20" fill="#552B15"/>
<rect x="30.5" width="10" height="20" fill="#7A4224"/>
<circle cx="35.5" cy="47" r="35" fill="#8B642B"/>
<circle cx="35" cy="47" r="31" stroke="white" stroke-opacity="0.15" stroke-width="2"/>
<path d="M35.0459 39.2646H22.9463V37.9902H35.0459V39.2646ZM24.3086 40.2754H33.5225V44.3037H31.8818V41.5791H24.3086V40.2754ZM24.499 31.3838H33.5957V32.6582H26.125V33.5664H33.2734V34.7822H26.125V35.7637H33.6982V37.0088H24.499V31.3838ZM43.7617 34.4014H35.9688V33.0977H39.0303V31.252H40.6709V33.0977H43.7617V34.4014ZM36.6865 38.3857C36.6865 37.79 36.8232 37.2554 37.0967 36.7817C37.375 36.3032 37.7559 35.9321 38.2393 35.6685C38.7227 35.3999 39.2646 35.2656 39.8652 35.2656C40.4609 35.2656 40.998 35.3999 41.4766 35.6685C41.9551 35.9321 42.3311 36.3032 42.6045 36.7817C42.8779 37.2554 43.0146 37.79 43.0146 38.3857C43.0146 38.9717 42.8779 39.5015 42.6045 39.9751C42.3311 40.4487 41.9551 40.8198 41.4766 41.0884C40.998 41.3569 40.4609 41.4912 39.8652 41.4912C39.2646 41.4912 38.7227 41.3569 38.2393 41.0884C37.7559 40.8198 37.375 40.4487 37.0967 39.9751C36.8232 39.5015 36.6865 38.9717 36.6865 38.3857ZM38.21 38.3857C38.21 38.7324 38.2808 39.0376 38.4224 39.3013C38.564 39.5601 38.7593 39.7603 39.0083 39.9019C39.2622 40.0386 39.5479 40.1045 39.8652 40.0996C40.1777 40.1045 40.4585 40.0386 40.7075 39.9019C40.9614 39.7603 41.1592 39.5576 41.3008 39.2939C41.4473 39.0303 41.5205 38.7275 41.5205 38.3857C41.5205 38.0439 41.4473 37.7412 41.3008 37.4775C41.1592 37.2139 40.9614 37.0088 40.7075 36.8623C40.4585 36.7158 40.1777 36.6426 39.8652 36.6426C39.5479 36.6426 39.2622 36.7158 39.0083 36.8623C38.7593 37.0088 38.564 37.2139 38.4224 37.4775C38.2808 37.7412 38.21 38.0439 38.21 38.3857ZM43.4834 36.4082H45.4316V31.0615H47.043V44.3037H45.4316V37.7412H43.4834V36.4082ZM34.0352 62.3037H32.3945V49.0615H34.0352V62.3037ZM23.0635 58.6562C24.7725 57.8457 26.0542 56.8765 26.9087 55.7485C27.7681 54.6206 28.2734 53.29 28.4248 51.7568H23.7373V50.4678H30.0801C30.0801 52.5723 29.604 54.418 28.6519 56.0049C27.6997 57.5918 26.1201 58.9102 23.9131 59.96L23.0635 58.6562ZM42.8096 49.4863C42.8096 49.9551 43 50.4019 43.3809 50.8267C43.7617 51.2466 44.2964 51.6055 44.9849 51.9033C45.6782 52.1963 46.4766 52.3916 47.3799 52.4893L46.8379 53.7197C45.7148 53.5928 44.7261 53.3169 43.8716 52.8921C43.022 52.4624 42.3848 51.9253 41.96 51.2808C41.5352 51.9253 40.8979 52.4624 40.0483 52.8921C39.1987 53.3169 38.2197 53.5928 37.1113 53.7197L36.5547 52.4893C37.458 52.3916 38.2563 52.1963 38.9497 51.9033C39.6479 51.6055 40.1875 51.2466 40.5684 50.8267C40.9492 50.4019 41.1396 49.9551 41.1396 49.4863V49.1348H42.8096V49.4863ZM35.9395 54.3789H48.0098V55.668H42.7656V56.6934H46.501V59.9746H38.9717V60.9414H46.8672V62.1865H37.375V58.8027H44.9043V57.9385H37.3604V56.6934H41.1396V55.668H35.9395V54.3789Z" fill="white"/>
</svg>
