<svg width="426" height="81" viewBox="0 0 426 81" fill="none" xmlns="http://www.w3.org/2000/svg">
<g clip-path="url(#clip0_5264_9365)">
<path d="M35.1073 31.5423C28.5807 28.5188 23.0363 26.0365 23.0363 21.0566C23.0363 17.3757 26.1371 14.5996 32.3389 14.5996C34.5505 14.5996 36.4451 14.8007 38.3319 15.2337C39.3294 15.3342 40.3193 15.4425 41.3168 15.4425C46.5288 15.4425 49.6219 12.4189 51.6247 6.47234L52.5063 3.99782C51.6247 3.7813 42.8788 -0.0078125 31.4574 -0.0078125C13.2851 -7.96178e-05 3.77365 11.3441 3.77365 23.1212C3.77365 29.0601 5.64501 33.3828 8.64536 36.7311C12.5195 41.0461 17.948 43.9768 23.0363 46.3276C30.5681 49.9002 37.3344 52.6067 37.3344 57.896C37.3344 62.6595 32.3389 65.3505 25.7118 65.3505C16.5174 65.3505 8.5371 60.1617 7.53183 59.6282L0 73.2303C1.32232 73.9881 11.089 80.0353 26.9259 80.0353C43.8764 80.0353 56.6047 70.5315 56.6047 55.9551C56.6047 41.3786 44.7657 36.0661 35.115 31.5423H35.1073Z" fill="#E1002A"/>
<path d="M101.37 38.333L132.061 1.625H110.232L85.641 33.2834H85.409V1.625H67.3682V79.2786H68.358C76.2146 79.2786 85.409 75.822 85.409 63.1788V45.2385H85.8575L110.897 78.4048H133.716L101.37 38.3175V38.333Z" fill="#E1002A"/>
<path d="M250.022 78.3198C250.014 78.2038 248.963 66.5581 248.963 39.9492C248.963 13.3404 250.014 1.74107 250.022 1.63281H232.051C232.066 1.74107 233.11 13.3327 233.11 39.9492C233.11 66.5658 232.066 78.2038 232.066 78.3198H250.014H250.022Z" fill="#864D34"/>
<path d="M217.845 1.63281C212.177 19.8747 203.64 42.3696 195.172 61.3539C186.72 42.3232 178.183 19.8283 172.515 1.63281H153.09C165.014 26.525 175.105 51.3398 184.717 78.3198H197.863L198.041 77.8249C209.47 46.1974 216.043 30.4069 229.522 1.63281H217.845Z" fill="#864D34"/>
<path d="M315.488 78.3198V70.4168H279.437C279.182 64.6017 278.873 54.8273 278.873 39.9415C278.873 25.0557 279.174 15.3277 279.437 9.52809H315.488V1.63281H261.969C261.976 1.74107 263.028 13.3327 263.028 39.9492C263.028 66.5658 261.984 78.2038 261.969 78.3198H315.488Z" fill="#864D34"/>
<path d="M313.285 35.2422H277.984L284.782 43.6014H313.285V35.2422Z" fill="#864D34"/>
<path d="M413.435 1.63281C407.759 19.8515 399.237 42.3464 390.785 61.3539C386.749 52.3141 382.611 42.3078 378.745 32.1545C382.302 23.7953 386.779 13.9126 392.525 1.63281H380.864C380.864 1.63281 375.629 17.114 374.484 20.5088C373.332 17.114 368.105 1.64828 368.105 1.64828L350.62 1.63281C357.758 16.8666 362.978 28.5742 367.424 39.3538C364.431 46.8934 361.269 54.4329 358.191 61.3539C349.074 42.7486 340.289 21.3594 332.959 1.63281H318.026C331.505 30.4301 338.256 46.731 349.685 78.3198H360.859C360.859 78.3198 370.324 53.072 371.569 49.7545C372.814 53.072 382.271 78.3121 382.271 78.3121H393.453C404.89 46.7233 411.641 30.4378 425.111 1.63281H413.435Z" fill="#864D34"/>
</g>
<defs>
<clipPath id="clip0_5264_9365">
<rect width="425.108" height="80.0353" fill="white"/>
</clipPath>
</defs>
</svg>
